# xmcd
#
# Track frame offsets:
#	150
#	16849
#	36108
#	53921
#	78323
#	109736
#	132323
#	146387
#	164781
#	180624
#	198004
#	215389
#	233158
#	252988
#	285370
#
# Disc length: 4075 seconds
#
# Revision: 0
# Processed by: cddbd v1.5.2PL0 Copyright (c) Steve Scherf et al.
# Submitted via: EasyCDDAExtractor 7.5.0.1
#
DISCID=ca0fe90f
DTITLE=Various Artist - message soul
DYEAR=2009
DGENRE=soul
TTITLE0=anthony hamilton - ain't nobody worryin'
TTITLE1=donnie - classifieds
TTITLE2=theodis ealey - hard times
TTITLE3=me'shel ndegeogello - better by the pound
TTITLE4=erykah badu - twinkle
TTITLE5=anthony david - krooked kop
TTITLE6=jill scott - rasool
TTITLE7=kyle jason - strong
TTITLE8=donnie - our new national anthem
TTITLE9=erykah badu and pharoahe monch - hold on
TTITLE10=india arie feat. akon - i am not my hair
TTITLE11=rachelle ferrell - sista
TTITLE12=jill scott - bedda at home
TTITLE13=bilal - sometimes
TTITLE14=amp fiddler with sly and robbie - blackhouse (paint the white house bla
TTITLE14=ck)
EXTD=
EXTT0=
EXTT1=
EXTT2=
EXTT3=
EXTT4=
EXTT5=
EXTT6=
EXTT7=
EXTT8=
EXTT9=
EXTT10=
EXTT11=
EXTT12=
EXTT13=
EXTT14=
PLAYORDER=
